<?xml version="1.0" encoding="utf-8"?>
<!-- Generator: Adobe Illustrator 16.0.0, SVG Export Plug-In . SVG Version: 6.00 Build 0)  -->
<!DOCTYPE svg PUBLIC "-//W3C//DTD SVG 1.1//EN" "http://www.w3.org/Graphics/SVG/1.1/DTD/svg11.dtd">
<svg version="1.1" id="Layer_1" xmlns="http://www.w3.org/2000/svg" xmlns:xlink="http://www.w3.org/1999/xlink" x="0px" y="0px"
	 width="467.582px" height="615.177px" viewBox="0 0 467.582 615.177" enable-background="new 0 0 467.582 615.177"
	 xml:space="preserve">
<g>
	<g>
		<path fill="#010101" d="M68.531,453.622c-0.814-2.969-3.4-4.359-5.796-4.359c-2.395,0-3.783,1.197-3.783,2.539
			c0,2.203,3.353,3.018,7.424,4.502c4.981,1.82,10.202,4.646,10.202,10.395c0,6.131-5.269,10.49-13.076,10.49
			c-6.993,0-11.975-3.881-14.178-10.154l7.712-2.061c0.862,2.539,3.257,5.078,6.801,5.078c2.874,0,4.216-1.342,4.216-2.971
			c0-2.682-3.928-3.354-8.718-5.172c-4.023-1.533-8.67-3.736-8.67-9.629c0-5.221,5.27-9.961,12.55-9.961
			c6.418,0,11.495,3.926,13.076,9.195L68.531,453.622z M71.932,436.762l-11.878,4.934l-2.3-4.215l11.448-6.131L71.932,436.762z"/>
		<path fill="#010101" d="M105.41,468.997v7.52h-23.9v-33.527h8.047v26.008H105.41z"/>
		<path fill="#010101" d="M143.678,483.366c-1.771,3.305-5.125,4.982-8.286,4.982c-5.077,0-8.909-2.826-8.909-7.855
			c0-4.072,3.545-6.85,5.461-7.137l-0.767-2.107h-13.268l-1.916,5.268h-8.669l13.411-33.527h7.615l13.411,33.527h-4.263
			c-2.299,0-5.364,1.197-5.364,3.977c0,1.436,1.054,2.873,3.305,2.873c1.629,0,3.305-1.053,4.119-2.73L143.678,483.366z
			 M128.591,464.208l-2.396-6.514c-0.718-1.916-1.58-4.934-1.628-4.934h-0.048c-0.048,0-0.91,3.018-1.629,4.934l-2.395,6.514
			H128.591z"/>
		<path fill="#010101" d="M161.063,453.622c-0.813-2.969-3.4-4.359-5.795-4.359c-2.396,0-3.784,1.197-3.784,2.539
			c0,2.203,3.353,3.018,7.424,4.502c4.981,1.82,10.202,4.646,10.202,10.395c0,6.131-5.269,10.49-13.075,10.49
			c-6.993,0-11.975-3.881-14.178-10.154l7.711-2.061c0.862,2.539,3.257,5.078,6.802,5.078c2.874,0,4.215-1.342,4.215-2.971
			c0-2.682-3.928-3.354-8.718-5.172c-4.022-1.533-8.669-3.736-8.669-9.629c0-5.221,5.269-9.961,12.549-9.961
			c6.419,0,11.496,3.926,13.076,9.195L161.063,453.622z"/>
		<path fill="#010101" d="M195.068,476.516l-10.153-13.938l-2.826,2.826v11.111h-8.047v-33.527h8.047v5.461
			c0,5.555-0.144,7.184-0.096,7.184h0.048c0.048,0,1.006-1.15,4.406-4.551l8.143-8.094h9.867l-14.226,14.273l14.321,19.254H195.068z
			"/>
		<path fill="#010101" d="M230.223,471.249h-13.268l-1.916,5.268h-8.67l13.411-33.527h7.616l13.411,33.527h-8.669L230.223,471.249z
			 M227.636,464.208l-2.395-6.514c-0.719-1.916-1.581-4.934-1.629-4.934h-0.048c-0.048,0-0.91,3.018-1.629,4.934l-2.395,6.514
			H227.636z"/>
		<path fill="#010101" d="M280.943,473.786c-1.963,2.107-5.795,3.402-9.1,3.402c-9.629,0-17.388-7.33-17.388-17.436
			s7.759-17.434,17.388-17.434c6.514,0,12.213,3.447,15.23,8.908l-8.189,2.154c-1.582-1.916-4.408-3.113-7.041-3.113
			c-5.557,0-9.006,3.977-9.006,9.484c0,5.891,3.977,9.58,9.484,9.58c5.363,0,7.711-2.779,8.67-5.27v-0.047h-8.814v-6.467h15.662
			v18.967h-6.896c0-2.203,0.049-2.682,0.049-2.73H280.943z"/>
		<path fill="#010101" d="M312.842,476.516l-6.227-10.92h-4.119v10.92h-8.047v-33.527h12.5c8.43,0,13.508,4.598,13.508,11.494
			c0,4.504-2.156,7.855-6.035,9.676l7.424,12.357H312.842z M302.496,458.459h5.555c2.875,0,4.023-2.156,4.023-3.977
			c0-1.818-1.148-3.975-4.023-3.975h-5.555V458.459z"/>
		<path fill="#010101" d="M355.037,442.989v18.631c0,10.059-5.939,15.568-14.801,15.568c-8.908,0-14.801-5.51-14.801-15.568v-18.631
			h8.047v18.439c0,5.748,2.348,8.238,6.754,8.238s6.754-2.49,6.754-8.238v-18.439H355.037z"/>
		<path fill="#010101" d="M373.953,442.989c8.238,0,13.221,4.311,13.221,11.494c0,7.186-4.982,11.496-13.221,11.496h-4.74v10.537
			h-8.047v-33.527H373.953z M373.811,458.459c3.113,0,4.98-1.484,4.98-3.977c0-2.49-1.867-3.975-4.98-3.975h-4.598v7.951H373.811z"
			/>
		<path fill="#010101" d="M407.672,471.249h-13.268l-1.916,5.268h-8.67l13.412-33.527h7.615l13.412,33.527h-8.67L407.672,471.249z
			 M405.086,464.208l-2.396-6.514c-0.717-1.916-1.58-4.934-1.627-4.934h-0.049c-0.047,0-0.91,3.018-1.629,4.934l-2.395,6.514
			H405.086z"/>
		<path fill="#010101" d="M128.975,495.924v33.529h-2.729V512.45c0-4.406,0.239-11.783,0.191-11.783h-0.048
			c-0.048,0-1.485,2.586-2.874,5.078l-8.909,15.471h-1.484l-8.909-15.471c-1.389-2.492-2.826-5.078-2.874-5.078h-0.048
			c-0.048,0,0.192,7.377,0.192,11.783v17.004h-2.73v-33.529h2.586l8.861,15.279c3.018,5.125,3.593,6.611,3.641,6.611h0.048
			c0.048,0,0.622-1.486,3.64-6.611l8.861-15.279H128.975z"/>
		<path fill="#010101" d="M138.36,529.454v-33.529h2.73v33.529H138.36z"/>
		<path fill="#010101" d="M177.54,504.739c-2.491-4.215-7.185-6.803-12.454-6.803c-8.238,0-14.561,5.939-14.561,14.754
			c0,8.717,6.418,14.703,14.561,14.703c5.7,0,10.586-3.064,12.98-7.76l2.73,0.768c-2.778,5.939-8.718,9.723-15.711,9.723
			c-9.627,0-17.387-7.328-17.387-17.434c0-10.107,7.76-17.436,17.387-17.436c6.563,0,12.214,3.449,15.231,8.766L177.54,504.739z"/>
		<path fill="#010101" d="M206.036,529.454l-7.999-13.076c-0.718,0.096-1.484,0.143-2.251,0.143h-6.801v12.934h-2.73v-33.529h9.531
			c7.664,0,12.31,3.977,12.31,10.346c0,4.887-2.682,8.238-7.28,9.58l8.334,13.604H206.036z M195.93,514.079
			c6.083,0,9.34-3.209,9.34-7.809c0-4.934-3.592-7.711-9.34-7.711h-6.944v15.52H195.93z"/>
		<path fill="#010101" d="M229.936,495.254c9.628,0,17.436,7.328,17.436,17.436c0,10.105-7.808,17.434-17.436,17.434
			c-9.627,0-17.387-7.328-17.387-17.434C212.549,502.583,220.309,495.254,229.936,495.254z M229.936,527.442
			c8.143,0,14.609-6.035,14.609-14.752c0-8.814-6.467-14.754-14.609-14.754c-8.19,0-14.561,5.939-14.561,14.754
			C215.375,521.407,221.745,527.442,229.936,527.442z"/>
		<path fill="#010101" d="M272.658,504.881c-0.719-4.453-4.406-7.137-9.102-7.137c-4.934,0-8.525,2.348-8.525,6.275
			c0,4.07,4.982,5.363,9.531,6.609c4.646,1.293,11.305,3.162,11.305,9.914c0,5.51-4.789,9.58-12.023,9.58
			c-7.231,0-11.639-4.311-12.356-9.818l2.634-0.719c0.384,4.311,3.832,7.998,9.82,7.998c5.555,0,9.051-2.969,9.051-6.992
			c0-5.557-6.322-6.609-11.016-8c-3.832-1.102-9.771-2.729-9.771-8.477c0-5.221,4.838-8.861,11.447-8.861
			c5.988,0,10.682,3.496,11.688,8.908L272.658,504.881z"/>
		<path fill="#010101" d="M297.467,495.254c9.627,0,17.434,7.328,17.434,17.436c0,10.105-7.807,17.434-17.434,17.434
			s-17.387-7.328-17.387-17.434C280.08,502.583,287.84,495.254,297.467,495.254z M297.467,527.442
			c8.143,0,14.607-6.035,14.607-14.752c0-8.814-6.465-14.754-14.607-14.754c-8.191,0-14.561,5.939-14.561,14.754
			C282.906,521.407,289.275,527.442,297.467,527.442z"/>
		<path fill="#010101" d="M324.047,498.559v12.645h14.896v2.539h-14.896v15.711h-2.729v-33.529h21.313v2.635H324.047z"/>
		<path fill="#010101" d="M371.32,495.924v2.635h-11.496v30.895h-2.777v-30.895H345.6v-2.635H371.32z"/>
	</g>
	<path fill-rule="evenodd" clip-rule="evenodd" d="M307.611,107.349c0.521-1.645,0.691-3.176,1.457-4.303
		c0.576-0.842,1.898-1.57,2.926-1.62c1.934-0.094,3.414,1.029,4.332,2.811c1.703,3.304,2.717,6.952,2.348,10.512
		c-0.398,3.865-1.797,7.7-4.83,10.546c-1.068,1.004-2.23,1.955-3.48,2.703c-1.904,1.137-3.525,0.699-4.73-1.113
		c-2.227-3.338-3.559-6.991-3.781-11.019C301.674,112.622,304.746,108.348,307.611,107.349z M308.861,121.193
		c3.059-1.59,4.299-4.042,4.648-7.036c0.229-1.955-0.664-3.437-1.703-2.871c-1.59,0.867-3.629,1.911-4.205,3.377
		C306.809,116.683,307.066,119.199,308.861,121.193z"/>
	<path fill-rule="evenodd" clip-rule="evenodd" fill="#F05225" d="M215.162,83.185H73.579c0,49.657-4.646,99.822-4.646,149.13
		c14.387,0,23.662-0.31,37.266-1.118c0.322-2.653,2.061-4.967,5.62-5.568c8.434-1.413,19.088-0.083,27.054,4.52
		c1.536,0.492,3.038,1.28,4.705,2.289c0.347,0.212,0.662,0.434,0.957,0.67c26.597,1.457,58.355,3.161,60.578,3.097
		c5.565-0.158,4.916-4.426,10.578-4.426C215.691,181.692,215.162,132.276,215.162,83.185z"/>
	<path fill-rule="evenodd" clip-rule="evenodd" fill="#FDB813" d="M239.594,255.898c0.22,38.723-2.629,110.882-2.404,150.384
		c16.27-0.09,33.811-2.979,50.797-3.107c14.18-0.107,31.344-0.127,45.516-0.24c21.119-0.168,38.385,2.354,58.221,2.24
		c-0.221-38.896-7.686-110.047-7.904-149.217C334.396,256.237,289.016,255.617,239.594,255.898z"/>
	<path fill-rule="evenodd" clip-rule="evenodd" fill="#80BB41" d="M368.5,137.987c-0.117,15.332-2.852,30.57-2.699,45.881
		c0.148,14.987,6.512,29.265,5.498,44.251c-0.332,4.919-4.23,7.582-8.939,6.809c-0.996-0.162-1.979-0.374-2.959-0.596
		c0.047,0.621-0.07,1.271-0.314,1.871l25.965-3.978c0-50.081-5.07-103.835-5.07-152.931c-7.686,0-15.742,0.049-23.986,0.153
		c3.814,5.509,5.986,12.18,7.424,18.842C366.24,111.361,368.598,124.571,368.5,137.987z"/>
	<path fill-rule="evenodd" clip-rule="evenodd" fill="#80BB41" d="M278.912,232.177c0.336-2.777,0.633-5.568,1.295-8.262
		c0.297-1.196,0.223-6.853,1.15-7.828c0.277-0.291,1.975-0.576,2.129,0.187c-0.104-0.507-0.121,1.782-0.014,1.251
		c1.033-5.214-0.193-10.482-0.24-15.76c-1.943-8.094,0.057-16.464,0.127-24.784c0.01-1.246,0.014-2.511,0.02-3.791
		c-3.895-0.167-7.748-0.571-11.551-1.487c-0.211,0.083-0.418,0.157-0.635,0.251c-2.824,1.196-5.264,1.172-8.223,0.586
		c-0.576-0.113-1.023-0.369-1.408-0.68c-0.094,0.079-0.18,0.167-0.275,0.246c-1.666,1.423-3.634,1.394-5.305,0
		c-1.711-1.423-2.805-3.013-3.787-5.026c-0.922-1.886-0.477-3.979,1.348-5.13c5.994-3.796,11.623-9.507,15.564-15.79
		c2.105-3.353,4.941-9.177,0.48,3.092c3.404-5.854,6.531-11.92,10.342-17.424c0.684-0.989,1.578-1.511,2.498-1.679
		c1.605-2.6,3.102-5.253,4.313-8.055c0.49-1.792,1.133-3.56,1.877-5.372c0.383-0.925,1-1.556,1.703-1.969
		c-0.332-6.415,0.816-13.057,2.594-19.118c1.375-4.682,3.221-10.369,6.549-14.47c-25.836,1.334-49.367,3.476-64.703,6.77
		c0,0,0,148.209,0,148.269c0,0,35.244,0,38.328-0.005c1.758,0,3.531,0.064,5.271-0.069
		C278.582,234.826,278.75,233.501,278.912,232.177z"/>
	<path d="M238.086,234.072c-0.1-5.962-1.045-22.879-1.047-28.841c-0.002-5.042-0.266-10.083-0.221-15.12
		c0.023-2.802,0.496-5.593,0.659-8.399c0.073-1.25-0.192-2.521-0.183-3.781c0.035-3.727,0.104-7.449,0.199-11.171
		c0.086-3.377,0.097-6.76,0.365-10.123c0.463-5.819,1.103-11.629,1.656-17.448c0.581-6.066,0.982-12.156,1.766-18.192
		c0.64-4.948-2.396,24.076-1.657,19.138c0.534-3.575,0.679-7.208,1.083-10.807c0.291-2.58,0.783-5.135,1.084-7.72
		c0.536-4.599,0.955-9.207,1.504-13.805c0.457-3.811,2.297-11.304,2.597-15.13c0.183-2.333,0,0,2.22-0.522
		c2.729-0.645,5.574-0.965,8.176-1.94c8.793-3.303,17.992-2.993,27.109-3.254c5.289-0.147,7.758-0.069,13.053-0.034
		c-0.688-1.585,1.865-3.181,2.344-4.928c0.02-0.069,0.061-0.133,0.08-0.202c-0.119,0.01-0.236,0.02-0.355,0.035
		c-0.506,0.044-1,0.822-1.457,0.783c-3.584-0.305-7.158-0.733-10.738-1.098c-0.406-0.04-0.832,0.113-1.246,0.157
		c-2.207,0.256-4.408,0.625-6.621,0.724c-2.553,0.113-5.115-0.044-7.676-0.005c-0.754,0.01-1.68,0.655-2.234,0.389
		c-2.713-1.28-5.023,0.586-7.475,0.92c-3.776,0.512-7.42,1.955-11.139,2.925c-0.992,0.256-2.086,0.104-3.075,0.364
		c-1.755,0.463-3.448,1.147-5.196,1.64c-1.143,0.32-1.879,0.773-1.879,2.127c-0.002,1.59-0.107,3.19-0.32,4.766
		c-0.679,4.992-1.511,9.965-2.127,14.967c-0.506,4.101-0.622,8.256-1.211,12.348c-0.531,3.712-1.708,7.321-2.178,11.043
		c-0.495,3.929-0.639,8.66-0.471,12.624c0.113,2.639-0.783,5.317-1.184,7.986c-0.495,3.24-1.059,6.479-1.369,9.738
		c-0.367,3.885,1.238,7.74,0.059,11.718c-0.546,1.852-0.164,3.963-0.24,5.958c-0.079,2.146-0.289,4.293-0.286,6.435
		c0.003,1.679,0.317,3.357,0.369,5.037c0.126,4.076,0.18,8.153,0.271,12.225c0.018,0.842,0.166,1.689,0.082,2.511
		c-0.02,0.212-0.055,0.419-0.084,0.625c0.219,3.259,0.813,6.494,1.125,9.753c0.111,1.157-0.254,2.354-0.209,3.525
		c0.113,2.994,0.275,5.987,0.531,8.971c0.125,1.506,0.209,3.122,0.817,4.46c1.342,2.954,4.229,3.663,7.104,3.89
		c2.488,0.197,5.012-0.079,7.523-0.084c2.483-0.005,4.975,0.167,7.459,0.089c4.287-0.138,8.576-0.423,12.865-0.625
		c5.184-0.236,10.398-0.167,15.543-0.753c5.801-0.655,11.584-1.044,17.408-0.901c2.59,0.064,5.182,0.113,7.766-0.01
		c5.512-0.251,11.016-0.674,16.531-0.916c1.521-0.064,3.068,0.251,4.6,0.418c2.84,0.305,5.674,0.797,8.521,0.906
		c2.496,0.099,5.01-0.227,7.518-0.354c2.35-0.118,4.697-0.295,7.049-0.31c2.357-0.015,4.814,0.581,7.053,0.099
		c2.836-0.621,5.443-1.074,8.355-2.147c0.66-0.246,1.91-0.502,2.658-0.704c1.994-0.546,1.926,0.399,1.926-1.698
		c0.002-1.896-0.549-4.638-0.744-6.528c-0.645-6.253-1.691-9.231-2.063-15.878c-0.285-5.165-0.586-10.334-0.813-15.499
		c-0.182-4.274,0.068-8.592-0.471-12.816c-0.805-6.282-0.193-12.486,0.063-18.738c0.469-11.659,0.645-23.332,0.9-34.996
		c0.078-3.589,0.436-7.238-0.064-10.753c-1.186-8.399-2.799-16.74-4.273-25.1c-0.133-0.748-0.508-1.457-0.787-2.176
		c-1.273-3.259-2.557-6.519-3.838-9.778c-1.75-4.456-3.393-9.015-6.816-12.5c-5.082-5.174-11.238-8.646-18.262-10.438
		c-1.439-0.369-3.086-0.143-4.607,0.054c-2.529,0.334-5.043,0.807-7.543,1.329c-2.484,0.517-5.061,0.876-7.391,1.817
		c-3.223,1.31-6.291,3.018-9.334,4.722c-1.836,1.019-3.723,2.132-5.17,3.609c-1.539,1.565-2.307,3.919-3.91,5.386
		c-3.445,3.161-3.963,7.68-5.75,11.565c-1.625,3.535-2.49,7.464-3.318,11.304c-0.596,2.767-1.082,5.75-0.67,8.493
		c0.379,2.511-0.201,4.387-1.4,6.332c-0.512,0.837-1.086,1.64-1.582,2.481c-1.236,2.103-2.428,4.229-3.674,6.327
		c-0.561,0.94-1.277,1.797-1.797,2.762c-0.596,1.093-0.916,2.343-1.586,3.382c-2.186,3.392-4.416,6.755-6.742,10.054
		c-2.156,3.057-4.498,5.987-6.691,9.029c-2.902,4.027-5.658,8.163-8.64,12.131c-1.317,1.752-3.158,3.106-4.507,4.845
		c-1.118,1.442-2.18,2.757-3.907,3.569c-0.56,0.266-1.071,1.654-0.872,2.304c0.506,1.629,1.155,3.358,3.184,3.835
		c0.95,0.221,1.896,0.478,2.841,0.748c5.401,1.566,10.429,4.476,16.429,3.84c3.791-0.404,7.662-0.074,12.033-0.074
		c0,2.59,0.119,5.79-0.037,8.985c-0.123,2.55-0.582,5.081-0.883,7.626c-0.045,0.34-0.014,0.694-0.037,1.039
		c-0.34,4.54-0.758,9.069-0.998,13.613c-0.164,3.141,0.139-0.749-0.182,2.368c-0.258,2.496-0.113,4.613,1.35,6.794
		c1.191,1.782,2.639,2.019,4.35,1.629c1.627-0.369,3.213-0.965,4.766-1.595c4.096-1.669,8.322-3.116,12.197-5.204
		c3.658-1.974,7.258-4.303,10.295-7.114c3.152-2.915,5.803-6.45,8.311-9.975c3.26-4.564,6.178-9.375,9.205-14.101
		c0.539-0.842,1.42-1.788,0.102-2.738c-1.389-1.004-3.525-0.92-4.363,0.271c-2.732,3.899-5.207,7.996-8.154,11.723
		c-3.35,4.224-6.627,8.739-10.811,12.003c-4.521,3.53-10.033,5.794-15.156,8.532c-1.539,0.822-3.188,1.457-4.834,2.048
		c-1.463,0.522-2.158-0.187-2.068-1.669c0.125-2.181,0.357,2.708,0.43,0.532c0.184-5.416,0.223-10.836,0.479-16.242
		c0.219-4.633,0.709-9.246,0.977-13.874c0.121-2.107,0.092-4.229-0.043-6.337c-0.066-1.009-0.25-2.304-0.898-2.915
		c-0.988-0.92-2.359-1.521-3.842-0.404c-0.457,0.35-1.311,0.222-1.988,0.241c-1.75,0.06-3.506,0.178-5.254,0.104
		c-3.885-0.162-7.813-0.152-11.639-0.743c-2.594-0.394-5.024-1.763-7.572-2.545c-1.684-0.517-1.379-1.157-0.484-2.201
		c3.465-4.052,7.037-8.03,10.271-12.265c4.818-6.307,7.137-10.27,8.91-12.825c0.996-1.438,2.094-2.802,3.092-4.239
		c2.311-3.343,4.734-6.612,6.836-10.078c2.408-3.968,4.488-8.133,6.766-12.181c1.033-1.841,2.27-3.569,3.291-5.416
		c0.676-1.226,0.824-2.408-0.939-3.053c-0.432-0.157-0.984-0.989-0.904-1.398c0.682-3.525,1.316-7.08,2.318-10.521
		c1.014-3.496,2.418-6.873,3.672-10.3c1.795-4.909,4.402-9.369,8.65-12.451c5.035-3.648,10.51-6.558,16.723-7.818
		c5.697-1.152,11.326-3.013,17.033,0.157c5.209,2.89,10.369,5.495,13.492,11.162c3.752,6.799,5.984,14.046,8.023,21.422
		c0.619,2.235,1.523,4.46,1.693,6.74c0.48,6.356,0.678,12.732,0.918,19.108c0.145,3.87,0.357,7.754,0.195,11.614
		c-0.188,4.348-0.793,8.68-1.143,13.022c-0.111,1.398,0.039,2.812,0.033,4.22c-0.02,8.576-0.102,17.148-0.043,25.725
		c0.014,2.511,0.57,5.017,0.619,7.533c0.158,7.533,1.822,14.849,2.104,22.377c0.291,7.794,1.176,12.328,1.844,20.668
		c0.164,2.073-0.379,2.9-2.105,2.935"/>
	<path d="M225.472,82.225c0.288-1.389,0.021-2.787-1.396-3.126c-1.732-0.414-3.594-0.438-5.391-0.369
		c-1.73,0.064-3.446,0.655-5.17,0.669c-2.767,0.02-5.539-0.271-8.311-0.379c-1.088-0.039-2.186,0.02-3.274,0.099
		c-4.313,0.3-8.635,0.571-12.943,0.955c-2.038,0.187-4.05,0.699-6.088,0.881c-1.779,0.163-3.825-0.463-5.319,0.217
		c-2.09,0.95-4.018,0.871-6.117,0.704c-2.307-0.187-4.655-0.478-6.928-0.212c-1.337,0.158-2.503,1.078-3.803-0.177
		c-0.241-0.231-1.11,0.153-1.675,0.31c-0.521,0.138-1.046,0.566-1.523,0.502c-3.301-0.423-6.577-1.059-9.884-1.394
		c-3.69-0.379-7.399-0.625-11.107-0.733c-3.98-0.113-7.966-0.01-11.949,0.015c-3.097,0.015-6.193,0.035-9.29,0.079
		c-4.437,0.059-8.874,0.163-13.313,0.197c-0.448,0-0.887-0.375-1.352-0.502c-0.56-0.157-1.141-0.266-1.716-0.334
		c-0.734-0.089-1.482-0.074-2.211-0.177c-1.093-0.158-2.196-0.616-3.255-0.527c-3.055,0.271-6.087,0.783-9.135,1.142
		c-2.368,0.281-4.764,0.379-7.112,0.763c-1.698,0.281-3.761,0.453-4.879,1.506c-0.94,0.886-1.149,3.018-0.979,4.515
		c0.293,2.57,1.07,4.973,0.032,7.651c-0.557,1.433,0.337,13.042,0.356,17.089c0.013,2.294-0.352,4.594-0.403,6.893
		c-0.108,4.884-0.552,2.668-0.879,6.779c-0.419,5.229,0.13,10.502-1.206,15.721c-0.699,2.723-0.084,5.76-0.311,8.641
		c-0.387,4.869-1.012,9.724-1.457,14.593c-0.286,3.117-0.665,6.253-0.579,9.369c0.148,5.372,0.756,10.729,0.926,16.1
		c0.155,4.899-0.032,9.808-0.034,14.711c-0.005,6.873,0.546,13.751-0.389,20.614c-0.296,2.181-0.286,4.431-0.165,6.637
		c0.093,1.753,0.947,3.003,2.813,3.742c5.442,2.162,11.031,1.453,16.402,0.458c0.473-0.089,5.489-0.113,13.325-0.094
		c0.141-1.782,0.814-3.505,2.006-4.815c-8.995-0.064-14.849-0.088-15.354-0.054c-3.353,0.227-6.728,0.251-10.096,0.241
		c-1.962-0.005-1.891-1.723-1.927-2.964c-0.081-2.742,0.068-5.49,0.138-8.232c0.057-2.393,0.118-4.781,0.207-7.168
		c0.093-2.59,0.386-5.189,0.3-7.774c-0.212-6.391-0.675-12.776-0.876-19.172c-0.311-9.571-0.165-19.127,0.785-28.684
		c0.758-7.622,0.992-15.302,1.526-22.953c0.224-3.225,0.797-6.44,0.898-9.669c0.113-3.708-0.189-7.43-0.188-11.147
		c0.01-5.263,0.146-10.531,0.207-15.799c0.076-6.199,0.403-8.286,0.303-9.689c-0.086-1.177,0.275-1.866,1.578-1.969
		c5.643-0.473,11.274-1.152,16.927-1.413c2.705-0.123,5.44,0.625,8.17,0.773c2.593,0.138,5.197-0.03,7.797,0
		c4.714,0.054,9.428,0.202,14.145,0.227c4.01,0.024,8.027-0.207,12.033-0.069c4.207,0.143,8.421,0.418,12.594,0.935
		c7.08,0.876,14.162,1.088,21.254,0.468c9.225-0.807,18.429-1.856,27.658-2.57c4.182-0.32,8.406-0.079,12.611-0.084
		c0.28-0.005,0.561,0.064,0.839,0.054c0,0,0.204-0.783-0.32,2.58c-1.041,6.661-0.45,13.264-1.762,19.871
		c-1.49,7.494-0.579,6.824-1.029,9.97c-0.364,2.545-0.199,4.943-0.086,7.434c0.248,5.293,0.303,10.595,0.406,15.893
		c0.026,1.403-0.094,2.806-0.077,4.205c0.01,0.714,0.18,1.428,0.205,1.61c0,1.797-0.077,3.058,0.021,4.303
		c0.108,1.438,0.487,2.865,0.552,4.303c0.188,4.264,0.222,8.532,0.424,12.796c0.189,3.998,0.601,7.986,0.768,11.989
		c0.212,5.037,0.214,10.083,0.421,15.12c0.227,5.534,0.604,11.063,0.879,16.597c0.138,2.723,0.256,5.455,0.313,8.183
		c0.076,0.202,0.143,0.423,0.189,0.66c0.34,1.684,0.934,7.818,1.418,12.042c-13.337-0.039-44.557-0.291-72.975-0.522
		c2.051,1.256,3.781,2.846,5.066,4.761c35.434,0.246,73.316,0.546,74.651,0.379c-0.084-1.319-0.121-2.644-0.133-3.973
		c0.098-0.478,0.138-0.985,0.105-1.531c-0.188-3.156-1.157-16.769-1.31-19.925c-0.298-6.041-0.604-12.082-0.835-18.128
		c-0.096-2.457,0.116-4.934-0.034-7.385c-0.273-4.466-0.819-8.921-1.046-13.392c-0.202-4.008,0.021-8.04-0.212-12.043
		c-0.197-3.357-1.021-6.686-1.157-10.043c-0.398-10.127-0.782-20.265-0.803-30.392c-0.007-5.48,0.761-10.955,1.157-16.435
		C218.591,96.685,224.002,89.329,225.472,82.225z"/>
	<path d="M391.668,400.398c-0.439-5.563-1.037-11.117-1.4-16.691c-0.213-3.289-0.059-6.607-0.145-9.91
		c-0.055-2.167-0.355-4.328-0.346-6.494c0.01-2.758,0.297-5.51,0.32-8.268c0.033-3.225-0.004-6.454-0.162-9.674
		c-0.221-4.515-0.539-9.029-0.824-13.539c-0.076-0.069-0.162-0.178-0.271-0.375c-0.775-1.418-0.193-3.559-0.295-5.371
		c-0.238-4.318-0.594-8.631-0.766-12.953c-0.104-2.693,0.088-5.396,0.049-8.094c-0.014-1.004-0.305-2.004-0.482-2.999
		c-0.059-0.334-0.244-0.669-0.217-0.99c0.303-3.407,0.686-6.809,0.932-10.218c0.078-1.103-0.148-2.24-0.297-3.348
		c-0.176-1.339-0.975-2.673,0.234-3.978c0.234-0.251-0.008-0.936-0.021-1.423c-0.049-1.629-0.205-3.264-0.119-4.884
		c0.119-2.29,0.586-4.569,0.582-6.854c-0.002-1.797-0.479-3.594-0.793-5.386c-0.068-0.379-0.311-1.014-0.531-1.039
		c-1.654-0.211-0.611-0.95-0.406-1.6c0.244-0.768,0.434-1.575,0.5-2.378c0.133-1.575,0.205-3.161,0.217-4.741
		c0.006-1.167,0.004-2.358-0.232-3.491c-0.354-1.684-2.846-2.777-4.504-2.215c-0.688,0.231-1.479,0.33-2.201,0.261
		c-7.057-0.63-14.1-1.531-21.166-1.92c-8.346-0.458-16.717-0.699-25.072-0.616c-5.754,0.059-11.494,0.862-17.244,1.261
		c-1.238,0.088-2.496-0.177-3.742-0.202c-4.549-0.088-9.102-0.098-13.648-0.221c-5.74-0.158-11.48-0.488-17.221-0.557
		c-2.586-0.034-5.176,0.423-7.766,0.581c-1.959,0.113-18.696,0.212-20.619,0.512c-3.126,0.487-6.25,1.014-9.366,1.57
		c0.194,0.768,0.272,1.62,0.209,2.565c-0.06,0.861-0.096,1.728-0.149,2.594c0.146-0.044,0.29-0.103,0.439-0.143
		c2.719-0.734,5.465-1.354,8.208-1.994c0.605-0.143,1.241-0.256,1.856-0.236c17.592,0.596,35.195-0.542,52.793,0.409
		c5.867,0.32,11.721,0.163,17.574,0.546c5.938,0.394,11.863-1.009,17.846-0.778c8.281,0.325,16.77,1.226,25.043,1.019
		c3.119-0.074,6.287,0.645,9.377,1.275c1.154,0.236,2.861,1.073,3.076,1.94c0.527,2.142,0.438,4.46,0.404,6.706
		c-0.064,4.421-0.32,8.842-0.379,13.269c-0.07,4.859-0.098,9.729,0.02,14.593c0.217,9.002,0.496,18.007,0.859,27.007
		c0.238,5.977,0.699,11.943,0.992,17.921c0.193,4.013,0.186-1.86,0.346,2.151c0.137,3.441,0.471,6.879,0.479,10.32
		c0.008,4.494-0.479,9-0.291,13.48c0.396,9.492,0.941,18.985,1.729,28.452c0.361,4.363,1.021,4.702-4.508,4.55
		c-6.543-0.183-13.082-0.536-19.619-0.605c-3.156-0.03-6.316,0.581-9.479,0.605c-3.082,0.029-6.162-0.409-9.244-0.482
		c-7.584-0.177-15.17-0.413-22.752-0.335c-6.957,0.074-13.92,0.438-20.869,0.837c-14.408,0.832-28.844,1.187-43.256,1.921
		c-2.908,0.146-5.822,0.275-8.718,0.561c-0.116,1.359-0.099,2.801,0.015,4.16c10.713-0.674,21.438-1.217,32.154-1.803
		c17.545-0.965,35.334-0.895,52.891-0.402c5.861,0.166,11.721,0.35,17.584,0.33c5.49-0.016,10.959-0.699,16.451-0.547
		c5.098,0.146,10.137,1.033,15.223,1.328c2.076,0.119,4.164,0.381,6.221,0.246C390.496,405.405,391.93,403.672,391.668,400.398z"/>
	<path d="M381.439,216.668c0.131,1.526,0.387,3.033,0.52,4.554c0.184,2.127,0.283,4.264,0.469,6.391
		c0.191,2.215-0.191,3.387,0.689,5.263c0.955,1.457,1.832,1.157,2.602,0.817c3.453,0.024,4.037-4.407,4.141-6.332
		c0.197-3.693-1.061-7.528-1.314-11.211c-0.461-6.715-1.184-13.411-1.752-20.112c-0.344-4.047-0.648-8.099-0.896-12.151
		c-0.256-4.21-0.451-8.419-0.613-12.624c-0.139-3.52-0.01-7.055-0.32-10.556c-0.354-3.968-1.162-7.892-1.58-11.855
		c-0.242-2.29,0.094-4.633-0.172-6.917c-0.602-5.14-1.74-10.236-2.063-15.386c-0.504-7.966-0.529-15.961-0.709-23.942
		c-0.035-1.531,0.072-3.082,0.266-4.604c0.484-3.89,0.836-7.813,1.668-11.629c0.488-2.216,1.83-4.239,2.729-6.371
		c0.602-1.428,0.418-2.732-1.244-3.235c-1.998-0.605-4.018-1.915-6.156-0.285c-0.158,0.118-0.527,0.079-0.746-0.01
		c-2.854-1.196-5.537-0.261-8.121,0.803c-2.344,0.955-4.594,1.453-7.154,0.862c-1.219-0.276-2.506-0.394-3.781-0.394
		c2.156,1.329,3.078,3.274,3.09,5.258c2.939-0.207,5.877-0.409,8.816-0.616c1.545-0.108,3.082-0.295,4.627-0.398
		c1.188-0.084,1.445,0.635,1.268,1.639c-0.416,2.339-0.996,4.663-1.221,7.021c-0.395,4.18-0.664,8.375-0.811,12.569
		c-0.08,2.29,0.279,4.589,0.311,6.883c0.047,3.131-0.197,6.277-0.014,9.399c0.352,5.958,0.922,11.9,1.393,17.853
		c0.693,8.67,1.408,17.34,2.051,26.015c0.281,3.776,0.406,7.563,0.617,11.343c0.223,4.003,0.379,8.016,0.717,12.008
		c0.475,5.652,1.117,11.29,1.633,16.937C380.768,207.993,381.068,212.335,381.439,216.668z"/>
	<path fill-rule="evenodd" clip-rule="evenodd" fill="#399CD7" d="M89.635,404.651c-4.715,0.744-8.594-1.943-8.899-6.857
		c-0.931-15.003,5.515-29.236,5.748-44.223c0.239-15.311-2.41-30.564-2.439-45.9c-0.024-13.414,2.412-26.608,5.308-39.661
		c0.559-2.525,1.226-5.051,2.046-7.518c-3.53-2.506-4.074-7.981-1.628-11.397c-5.765-0.084-11.417-0.143-16.875-0.172
		c-0.277,49.094-5.654,102.813-5.938,152.899l25.946,4.125c-0.241-0.605-0.356-1.254-0.308-1.875
		C91.616,404.288,90.634,404.495,89.635,404.651z"/>
	<path fill-rule="evenodd" clip-rule="evenodd" fill="#35A0DA" d="M159.096,253.48c0.334,2.62,0.452,5.278,0.601,7.932
		c2.432,2.93,2.89,6.288,2.525,9.896c1.044,4.456,1.691,9.118,1.627,13.707c11.865,10.959,17.525,27.51,27.197,40.3
		c0.628,0.832,1.036,1.654,1.277,2.462c2.489,2.481,5.188,4.696,7.974,6.484c1.816,1.167,2.25,3.259,1.317,5.14
		c-0.995,2.009-2.098,3.594-3.816,5.008c-1.679,1.383-3.646,1.398-5.307-0.03c-0.094-0.079-0.178-0.167-0.271-0.251
		c-0.386,0.311-0.837,0.562-1.413,0.675c-2.964,0.565-5.4,0.575-8.219-0.636c-0.217-0.094-0.424-0.172-0.633-0.256
		c-3.809,0.896-7.666,1.28-11.561,1.424c0,1.279-0.002,2.545,0,3.795c0.024,8.316,1.977,16.701-0.015,24.785
		c-0.076,5.272-1.334,10.536-0.33,15.754c0.091,0.463,0.099-1.215,0.029-1.318c0.257-0.665,1.827-0.389,2.096-0.104
		c0.923,0.975,0.816,6.637,1.104,7.833c0.647,2.698,0.929,5.489,1.248,8.267c0.153,1.328,0.315,2.648,0.532,3.957
		c1.74,0.145,3.513,0.09,5.268,0.1c3.087,0.025,38.332,0.221,38.332,0.221c0-0.059,0.839-148.266,0.839-148.266
		C205.025,257.168,183.234,254.962,159.096,253.48z"/>
	<path d="M213.916,404.301c0.136-6.178,1.177-23.696,1.214-29.875c0.034-5.219,0.33-10.438,0.315-15.656
		c-0.011-2.904-0.468-5.799-0.616-8.709c-0.063-1.295,0.21-2.609,0.207-3.914c-0.013-3.859-0.059-7.721-0.133-11.575
		c-0.066-3.495-0.06-7.001-0.306-10.481c-0.428-6.041-1.036-12.063-1.556-18.089c-0.544-6.287-0.91-12.597-1.659-18.854
		c-0.61-5.13,2.255,24.95,1.546,19.834c-0.515-3.707-0.638-7.474-1.019-11.203c-0.276-2.673-0.754-5.327-1.039-8
		c-0.51-4.766-0.901-9.546-1.423-14.313c-0.438-3.953-2.232-11.723-2.511-15.686c-0.168-2.422,0,0-2.216-0.556
		c-2.726-0.685-5.568-1.029-8.163-2.053c-8.773-3.471-17.976-3.205-27.089-3.525c-5.287-0.187-7.759-0.118-13.054-0.113
		c0.696-1.635-1.847-3.304-2.316-5.116c-0.021-0.069-0.055-0.138-0.077-0.207c0.118,0.01,0.239,0.02,0.354,0.035
		c0.508,0.049,0.995,0.856,1.453,0.822c3.586-0.3,7.163-0.724,10.745-1.078c0.406-0.039,0.829,0.118,1.245,0.167
		c2.206,0.281,4.404,0.674,6.617,0.788c2.551,0.133,5.115-0.015,7.674,0.04c0.755,0.015,1.676,0.689,2.234,0.418
		c2.718-1.314,5.02,0.635,7.467,0.995c3.773,0.546,7.41,2.063,11.122,3.087c0.989,0.276,2.088,0.123,3.074,0.399
		c1.751,0.487,3.441,1.211,5.188,1.723c1.137,0.34,1.87,0.817,1.863,2.22c-0.005,1.645,0.091,3.304,0.293,4.938
		c0.649,5.174,1.452,10.329,2.038,15.514c0.485,4.254,0.576,8.557,1.14,12.801c0.51,3.85,1.667,7.594,2.115,11.454
		c0.47,4.072,0.586,8.976,0.396,13.077c-0.128,2.737,0.749,5.51,1.136,8.276c0.478,3.362,1.023,6.72,1.312,10.099
		c0.345,4.027-1.282,8.01-0.125,12.141c0.536,1.915,0.138,4.105,0.204,6.174c0.066,2.221,0.263,4.445,0.248,6.666
		c-0.01,1.738-0.334,3.477-0.398,5.214c-0.15,4.225-0.227,8.444-0.34,12.663c-0.024,0.871-0.177,1.748-0.099,2.605
		c0.02,0.211,0.055,0.428,0.081,0.645c-0.238,3.377-0.852,6.725-1.182,10.099c-0.118,1.196,0.239,2.438,0.19,3.652
		c-0.134,3.103-0.313,6.204-0.586,9.291c-0.136,1.561-0.229,3.234-0.842,4.619c-1.361,3.051-4.254,3.77-7.13,3.986
		c-2.491,0.188-5.012-0.107-7.522-0.127c-2.486-0.02-4.976,0.146-7.459,0.049c-4.288-0.168-8.574-0.486-12.86-0.719
		c-5.185-0.275-10.398-0.236-15.538-0.871c-5.8-0.715-11.58-1.146-17.406-1.035c-2.588,0.055-5.18,0.09-7.762-0.049
		c-5.51-0.295-11.014-0.758-16.528-1.043c-1.521-0.078-3.067,0.24-4.599,0.408c-2.843,0.301-5.682,0.793-8.532,0.891
		c-2.496,0.084-5.007-0.266-7.513-0.412c-2.349-0.139-4.697-0.33-7.046-0.359c-2.358-0.031-4.82,0.576-7.055,0.059
		c-2.831-0.66-5.436-1.143-8.341-2.275c-0.659-0.25-1.91-0.525-2.653-0.738c-1.989-0.576-1.931,0.404-1.915-1.768
		c0.007-1.965,0.573-4.8,0.78-6.764c0.682-6.475,1.745-9.553,2.156-16.44c0.317-5.347,0.647-10.699,0.9-16.05
		c0.21-4.426-0.02-8.902,0.547-13.269c0.842-6.504,0.266-12.935,0.049-19.418c-0.403-12.077-0.509-24.169-0.696-36.259
		c-0.057-3.712-0.394-7.493,0.126-11.137c1.238-8.695,2.897-17.325,4.421-25.971c0.138-0.773,0.515-1.507,0.8-2.25
		c1.293-3.373,2.595-6.745,3.895-10.113c1.78-4.604,3.446-9.315,6.891-12.909c5.112-5.332,11.289-8.892,18.32-10.713
		c1.444-0.374,3.089-0.128,4.61,0.088c2.525,0.36,5.036,0.867,7.533,1.413c2.481,0.552,5.059,0.94,7.38,1.93
		c3.215,1.374,6.272,3.161,9.308,4.938c1.829,1.073,3.71,2.23,5.147,3.771c1.531,1.63,2.284,4.072,3.877,5.603
		c3.43,3.293,3.919,7.976,5.685,12.013c1.6,3.668,2.446,7.749,3.249,11.728c0.581,2.87,1.051,5.962,0.62,8.803
		c-0.391,2.595,0.18,4.544,1.364,6.568c0.51,0.872,1.078,1.704,1.57,2.58c1.221,2.186,2.4,4.396,3.636,6.573
		c0.557,0.979,1.269,1.871,1.782,2.87c0.586,1.137,0.901,2.437,1.563,3.516c2.166,3.522,4.377,7.018,6.687,10.45
		c2.137,3.181,4.46,6.228,6.637,9.389c2.88,4.19,5.609,8.488,8.566,12.624c1.305,1.816,3.141,3.234,4.48,5.037
		c1.112,1.501,2.161,2.875,3.885,3.727c0.556,0.275,1.063,1.713,0.861,2.388c-0.518,1.685-1.177,3.472-3.208,3.954
		c-0.952,0.227-1.9,0.486-2.843,0.763c-5.413,1.591-10.455,4.573-16.454,3.884c-3.789-0.438-7.658-0.123-12.03-0.146
		c-0.018,2.683-0.153,6.001-0.018,9.305c0.108,2.645,0.557,5.273,0.842,7.912c0.04,0.354,0.005,0.714,0.029,1.073
		c0.311,4.706,0.704,9.403,0.916,14.11c0.146,3.25-0.133-0.773,0.17,2.451c0.241,2.586,0.084,4.781-1.391,7.032
		c-1.201,1.842-2.651,2.078-4.359,1.664c-1.623-0.389-3.208-1.014-4.757-1.679c-4.084-1.753-8.306-3.275-12.168-5.461
		c-3.644-2.063-7.232-4.5-10.25-7.424c-3.137-3.042-5.766-6.716-8.255-10.384c-3.229-4.746-6.119-9.742-9.12-14.656
		c-0.537-0.877-1.411-1.866-0.084-2.841c1.394-1.029,3.53-0.931,4.359,0.306c2.711,4.057,5.16,8.314,8.087,12.189
		c3.323,4.396,6.575,9.094,10.74,12.496c4.5,3.683,10,6.06,15.105,8.925c1.533,0.861,3.178,1.531,4.822,2.152
		c1.458,0.547,2.156-0.182,2.078-1.719c-0.113-2.26-0.372,2.801-0.434,0.547c-0.152-5.608-0.16-11.226-0.382-16.828
		c-0.194-4.801-0.654-9.582-0.898-14.377c-0.108-2.186-0.063-4.387,0.084-6.563c0.069-1.049,0.261-2.389,0.916-3.014
		c0.989-0.95,2.363-1.565,3.84-0.404c0.458,0.37,1.31,0.236,1.989,0.267c1.748,0.069,3.506,0.202,5.251,0.133
		c3.887-0.143,7.813-0.113,11.646-0.704c2.595-0.389,5.031-1.792,7.584-2.59c1.687-0.531,1.386-1.191,0.5-2.279
		c-3.444-4.219-6.994-8.359-10.201-12.762c-4.781-6.563-7.078-10.684-8.833-13.333c-0.989-1.497-2.082-2.919-3.067-4.416
		c-2.294-3.476-4.696-6.878-6.779-10.475c-2.383-4.126-4.44-8.449-6.693-12.653c-1.021-1.915-2.247-3.712-3.257-5.632
		c-0.672-1.275-0.813-2.501,0.955-3.161c0.434-0.158,0.989-1.015,0.911-1.438c-0.66-3.658-1.272-7.341-2.255-10.915
		c-0.995-3.624-2.378-7.134-3.614-10.694c-1.765-5.091-4.345-9.729-8.576-12.943c-5.013-3.811-10.47-6.854-16.676-8.192
		c-5.689-1.226-11.307-3.186-17.035,0.064c-5.224,2.964-10.398,5.632-13.557,11.486c-3.788,7.021-6.068,14.519-8.148,22.146
		c-0.632,2.309-1.548,4.613-1.732,6.976c-0.518,6.578-0.751,13.185-1.029,19.787c-0.17,4.008-0.403,8.028-0.264,12.026
		c0.16,4.51,0.741,8.995,1.066,13.5c0.104,1.447-0.055,2.914-0.06,4.371c-0.029,8.883,0.003,17.764-0.104,26.646
		c-0.031,2.604-0.603,5.199-0.669,7.803c-0.199,7.805-1.908,15.371-2.233,23.169c-0.334,8.074-1.245,12.768-1.962,21.403
		c-0.18,2.146,0.362,3.004,2.088,3.053"/>
	<path fill-rule="evenodd" clip-rule="evenodd" d="M147.231,285.911c-0.247,4.022-1.601,7.676-3.841,10.997
		c-1.221,1.802-2.843,2.235-4.741,1.083c-1.248-0.753-2.402-1.713-3.464-2.72c-3.018-2.86-4.394-6.706-4.772-10.575
		c-0.348-3.555,0.688-7.198,2.409-10.497c0.929-1.777,2.415-2.89,4.348-2.787c1.026,0.059,2.346,0.792,2.915,1.634
		c0.761,1.132,0.923,2.664,1.433,4.313C144.38,278.378,147.428,282.667,147.231,285.911z M141.485,284.68
		c-0.566-1.472-2.6-2.531-4.183-3.402c-1.036-0.571-1.938,0.901-1.721,2.86c0.335,2.994,1.556,5.456,4.608,7.061
		C141.995,289.214,142.266,286.699,141.485,284.68z"/>
	<path d="M70.659,386.282c-0.14,1.521-0.403,3.029-0.544,4.545c-0.196,2.132-0.31,4.264-0.507,6.396
		c-0.202,2.216,0.173,3.388-0.719,5.253c-0.965,1.457-1.836,1.148-2.606,0.809c-3.454,0.004-4.011-4.432-4.104-6.357
		c-0.177-3.691,1.105-7.522,1.379-11.205c0.497-6.712,1.258-13.402,1.866-20.102c0.364-4.043,0.694-8.095,0.962-12.146
		c0.281-4.205,0.503-8.414,0.688-12.619c0.157-3.516,0.049-7.055,0.379-10.551c0.377-3.969,1.206-7.893,1.649-11.851
		c0.251-2.284-0.069-4.633,0.209-6.913c0.63-5.14,1.8-10.226,2.149-15.373c0.546-7.961,0.62-15.957,0.847-23.943
		c0.039-1.526-0.06-3.077-0.241-4.598c-0.463-3.895-0.793-7.818-1.605-11.639c-0.473-2.22-1.804-4.249-2.69-6.386
		c-0.593-1.433-0.401-2.737,1.263-3.229c2.002-0.596,4.027-1.891,6.157-0.251c0.157,0.124,0.529,0.084,0.746-0.005
		c2.862-1.182,5.538-0.226,8.118,0.847c2.336,0.97,4.584,1.482,7.146,0.906c1.221-0.271,2.509-0.384,3.786-0.379
		c-2.164,1.324-3.095,3.259-3.121,5.243c-2.938-0.222-5.874-0.438-8.811-0.66c-1.544-0.123-3.082-0.315-4.626-0.428
		c-1.187-0.089-1.45,0.625-1.277,1.629c0.403,2.344,0.97,4.667,1.182,7.026c0.369,4.185,0.615,8.385,0.738,12.579
		c0.069,2.29-0.306,4.584-0.35,6.878c-0.063,3.131,0.16,6.283-0.039,9.399c-0.385,5.958-0.99,11.897-1.494,17.845
		c-0.741,8.666-1.505,17.33-2.196,26c-0.303,3.771-0.45,7.558-0.682,11.339c-0.246,4.002-0.426,8.016-0.785,12.008
		c-0.505,5.646-1.182,11.279-1.729,16.927C71.379,377.607,71.056,381.949,70.659,386.282z"/>
	<path d="M241.668,367.578c0.187-4.48-0.299-8.99-0.291-13.485c0.008-3.437,0.34-6.873,0.478-10.314
		c0.159-4.013,0.152,1.856,0.35-2.151c0.29-5.978,0.751-11.944,0.989-17.922c0.361-9.004,0.641-18.004,0.859-27.014
		c0.189-7.787-0.074-15.57-0.246-23.359c-0.141-6.272-1.133-14.632,6.742-15.499c0-6.332-7.355-4.219-11.021-3.274
		c-3.182,0.817-2.434,6.514-2.43,9.271c0.006,4.224-0.684,8.438-0.452,12.658c0.138,2.575,0.563,5.081,0.512,7.671
		c-0.177,9.448,0.731,18.864,0.46,28.307c-0.396,13.948-2.373,27.802-2.676,41.75c-0.34,15.681-0.359,31.318-1.6,46.96
		c-0.256,3.273,1.174,5.006,4.5,5.213c2.063,0.133,6.676,0.281,8.749,0.162c0.997-0.059,3.796-0.275,4.79-0.354
		c-0.824-1.639-5.127-2.143-4.811-3.973c-0.612,0.02-6.331-0.148-6.018-6.957"/>
	<path fill-rule="evenodd" clip-rule="evenodd" d="M337.299,163.663c1.223,1.327,2.209,2.023,2.566,2.964
		c0.146,0.389-1.057,1.29-1.646,1.959c-0.764-0.714-1.768-1.307-2.195-2.184C335.811,165.957,336.637,165.007,337.299,163.663z"/>
	<g>
		<path fill-rule="evenodd" clip-rule="evenodd" d="M333.418,145.648c-0.584,0.123-1.17,0.246-1.924,0.398
			c-0.307-0.773-0.611-1.546-1.102-2.776c-0.736,0.955-1.197,1.551-1.688,2.19c-1.527,0-3.102,0-4.541,0
			c-0.709,1.822-2.855,2.984-0.623,5.135c-1.992,1.147-3.789,2.181-5.447,3.136c-2.805-1.231-2.836-3.771-3.641-5.864
			c1.588-2.796,5.152-0.719,7.072-3.476c0.057-1.625,0.24-3.653,3.082-4.199c0.869-0.172,1.955-1.62,2.111-2.615
			c0.531-3.328,3.281-4.879,5.16-7.119c0.285-0.345,0.803-0.674,1.221-0.689c2.332-0.064,4.662-0.03,7.176-0.03
			c-0.061-0.443-0.18-1.3-0.301-2.181c0.715-0.3,1.332-0.561,2.111-0.896c-0.348-0.635-0.621-1.137-0.895-1.645
			c0.176-0.069,0.416-0.256,0.512-0.202c4.121,2.422,4.543,4.869,1.52,8.478c-0.455,0.537-0.818,1.167-1.15,1.797
			c-1.59,3.028-3.934,5.145-7.563,6.809c-1.855,0.852-1.627,2.403-1.291,3.979L333.418,145.648z M337.279,136.096
			c-0.193,0.222-0.391,0.448-0.586,0.67c0.486,0.354,0.973,0.709,1.457,1.063c0.123-0.143,0.244-0.286,0.367-0.429
			C338.105,136.963,337.691,136.53,337.279,136.096z"/>
		<path fill-rule="evenodd" clip-rule="evenodd" d="M328.449,156.494c1.473-0.734,2.945-1.467,4.555-2.27
			c1.012,2.24,2.824,1.866,5.031,1.344c-1.404-1.433-2.621-2.673-3.799-3.875c1.203-2.329,3.402-3.24,5.748-2.437
			c1.01,0.349,1.998,0.773,2.996,1.162l-0.08-0.029c0.672,1.191,0.674,2.299-0.529,3.146c-0.975,0.689-2.006,1.29-3.018,1.935
			c-1.109,3.835-1.109,3.835-3.445,4.269c0.449-0.847,0.793-1.497,1.186-2.235c-1.402-1.669-2.557,0.32-3.854,0.261
			c-0.547-0.389-1.119-0.797-1.84-1.314c-0.334,0.384-0.873,0.704-0.895,1.063c-0.289,4.569-4.369,5.933-7.107,8.399
			c-0.369,0.33-1.805,0.227-1.881,0.01c-0.318-0.876-0.301-1.876-0.428-3.038c-0.43-0.231-1.141-0.625-2.141-1.172
			c0.91-1.763,1.752-3.397,2.645-5.125c1.188,0.773,2.057,1.344,3.248,2.122c0.129-0.979,0.219-1.629,0.305-2.279l-0.092,0.113
			C326.195,157.125,327.334,157.592,328.449,156.494z"/>
		<path fill-rule="evenodd" clip-rule="evenodd" d="M342.98,150.418c-0.797-1.127-1.594-2.25-2.58-3.638
			c-0.156,0.088-0.605,0.354-1.072,0.581c-0.391,0.192-0.805,0.334-1.393,0.571c0.605-1.378,1.102-2.496,1.602-3.633
			c2.156-0.054,3.393-0.965,2.836-2.654c-0.596-1.812-0.207-2.713,1.387-3.348c1.277-0.512,2.49-1.64,3.982-0.532
			c1.314,0.984,2.301,3.254,1.578,4.731c-1.313,2.669-2.012,5.943-5.559,6.883c-0.359,0.093-0.602,0.645-0.879,0.995
			C342.9,150.389,342.98,150.418,342.98,150.418z"/>
		<path fill-rule="evenodd" clip-rule="evenodd" d="M328.588,153.461c-1.373,0-2.543,0-3.973,0c1.592-0.975,0.123-1.231-0.207-2.26
			c2.766-0.862,5.535-1.724,8.303-2.59c0.133,0.291,0.266,0.581,0.398,0.871c-0.928,0.512-1.979,0.892-2.752,1.581
			C329.588,151.753,329.092,152.748,328.588,153.461z"/>
		<path fill-rule="evenodd" clip-rule="evenodd" d="M333.418,145.648l-0.199,0.231c0.586-0.498,1.172-1,1.91-1.62
			c0.619,1.398,0.049,2.053-0.846,2.481C334.191,146.785,333.715,146.032,333.418,145.648z"/>
		<path fill-rule="evenodd" clip-rule="evenodd" d="M328.396,147.662c0.256,0.221,0.498,0.433,0.744,0.645
			c-0.195,0.207-0.393,0.414-0.59,0.625c-0.211-0.256-0.451-0.497-0.615-0.783C327.908,148.104,328.191,147.873,328.396,147.662z"/>
		<path fill-rule="evenodd" clip-rule="evenodd" fill="#FFFFFF" d="M337.279,136.096c0.412,0.434,0.826,0.867,1.238,1.305
			c-0.123,0.143-0.244,0.286-0.367,0.429c-0.484-0.354-0.971-0.709-1.457-1.063C336.889,136.544,337.086,136.318,337.279,136.096z"
			/>
	</g>
	<path fill-rule="evenodd" clip-rule="evenodd" d="M105.186,309.738c0.088-2.358,1.496-3.304,3.694-2.159
		c2.107,1.088,4.055,2.484,6.083,3.712c0.729,0.446,1.512,0.815,2.737,1.46c-0.165-0.997-0.104-1.529-0.335-1.849
		c-1.265-1.777-2.865-3.074-5.261-3.153c0.335-1.177,0.663-2.348,1.015-3.602c1.489-0.526,2.679,0.254,3.835,1.068
		c1.682,1.174,3.341,2.381,4.978,3.619c0.911,0.684,1.743,1.479,2.642,2.186c0.379,0.306,0.835,0.5,1.246,0.769
		c1.792,1.154,3.571,2.336,5.376,3.476c2.787,1.755,4.675,4.709,7.888,5.898c0.293,0.106,0.539,0.377,0.785,0.599
		c1.091,0.955,2.085,1.92,3.508,2.54c1.691,0.736,3.134,1.967,5.066,2.322c0.896,0.16,1.687,0.886,2.435,1.645
		c-1.889-1.049-3.877-0.773-6.272-0.815c0.633,1.122,1.117,1.983,1.726,3.056c-1.159,0.713-2.336,1.428-3.692,2.262
		c-4.432-3.909-9.052-7.491-14.445-10.193c-0.131,1.033,1.457,1.334,0.576,2.363c-0.074,0.08,0.329,0.674,0.605,0.932
		c2.479,2.3,4.984,4.57,7.466,6.869c0.286,0.266,0.438,0.672,0.689,1.08c-1.007,1.359-2.159,2.073-3.825,1.607
		c-1.196-2.508-2.949-4.654-5.852-3.562c-1.046-1.628-2.393-2.866-4.734-2.341c-0.258-0.574-0.62-1.133-0.775-1.74
		c-0.556-2.164-1.745-3.036-3.956-2.939c-0.97,0.044-1.957-0.141-3.057-0.234c-0.17-0.551-0.33-1.068-0.404-1.31
		c-0.955-0.214-1.765-0.317-2.521-0.581c-2.496-0.861-4.094-2.967-6.061-4.549c-0.348-0.278-0.594-1.113-0.429-1.497
		c0.18-0.411,0.889-0.808,1.369-0.815c0.603-0.01,1.287,0.273,1.807,0.626c3.1,2.075,6.122,4.247,9.244,6.287
		c1.305,0.847,2.959,1.229,4.099,2.226c1.226,1.078,2.43,1.625,4.384,1.465c-0.492-0.628-0.793-1.379-1.248-1.484
		c-0.984-0.246-1.302-0.906-1.851-1.62c-1.311-1.701-2.654-3.681-4.469-4.618c-2.299-1.184-4.059-2.883-6.075-4.342
		c-1.47-1.063-3.37-1.514-4.982-2.396C107.122,311.409,106.207,310.525,105.186,309.738z M127.552,320.045
		c1.603,0.275,1.603,0.275,1.973-1.426C127.843,318.083,127.843,318.083,127.552,320.045z M119.354,314.036
		c0.751-0.426,1.389-0.783,2.021-1.132c-0.178-0.172-0.354-0.342-0.539-0.509c-0.487-0.113-0.965-0.224-1.635-0.384
		C119.266,312.872,119.311,313.487,119.354,314.036z M123.108,315.611c0.066-0.133,0.139-0.273,0.212-0.414
		c-0.371-0.189-0.746-0.381-1.112-0.574c-0.062,0.15-0.192,0.406-0.178,0.418C122.375,315.252,122.747,315.427,123.108,315.611z"/>
	<path fill-rule="evenodd" clip-rule="evenodd" d="M102.241,316.013c-0.788-0.013-1.576-0.024-2.366-0.037
		c-0.078,0.144-0.157,0.286-0.238,0.429c0.598,0.354,1.156,0.85,1.809,1.041c3.171,0.938,5.05,2.954,5.992,6.156
		c0.576,1.965,0.039,2.996-1.696,3.703c-0.768,0.314-1.526,0.662-2.349,1.014c-1.986-1.376-2.734-3.438-3.621-5.393
		c-0.544-1.199-0.9-2.5-1.57-3.619c-1.049-1.76,0.013-3.265,0.416-4.82c0.089-0.347,1.13-0.8,1.512-0.65
		c0.876,0.35,1.614,1.042,2.41,1.593C102.438,315.623,102.342,315.818,102.241,316.013z"/>
	<path fill-rule="evenodd" clip-rule="evenodd" d="M345.152,161.171c2.076-1.733,3.963-2.639,3.381-5.11
		c-0.094-0.399,1.684-1.615,2.682-1.738c0.514-0.064,1.617,1.374,1.768,2.255c0.385,2.226-1.938,4.544-4.279,4.589
		C347.807,161.186,346.904,161.171,345.152,161.171z"/>
</g>
</svg>
